<svg width="145" height="137" viewBox="0 0 145 137" fill="none" xmlns="http://www.w3.org/2000/svg">
<path d="M30.5103 5.52089C17.668 14.5868 8.14563 27.6065 3.39707 42.592C-1.35148 57.5775 -1.06525 73.7054 4.21207 88.5129C9.48939 103.321 19.4678 115.994 32.6237 124.599C45.7795 133.203 61.3899 137.266 77.0713 136.166C92.7526 135.066 107.643 128.865 119.469 118.508C131.296 108.152 139.407 94.2095 142.566 78.8103C145.725 63.4111 143.758 47.4012 136.964 33.2251C130.171 19.0491 118.924 7.48585 104.942 0.301073L99.3633 11.1581C110.975 17.1248 120.314 26.7277 125.956 38.5004C131.598 50.2732 133.232 63.5689 130.609 76.3574C127.985 89.1459 121.249 100.724 111.428 109.325C101.606 117.926 89.2402 123.076 76.2174 123.989C63.1945 124.903 50.2306 121.529 39.3051 114.383C28.3796 107.237 20.0929 96.7122 15.7103 84.415C11.3277 72.1179 11.09 58.7243 15.0335 46.2793C18.977 33.8344 26.885 23.0219 37.55 15.493L30.5103 5.52089Z" fill="#042450"/>
</svg>
