<svg width="126" height="129" viewBox="0 0 126 129" fill="none" xmlns="http://www.w3.org/2000/svg">
<path d="M69.7486 109.813L89.8383 102.958L86.3516 125.52L69.7486 109.813Z" fill="#BF1F2E"/>
<path d="M49.7072 107.924L70.8611 109.817L58.4198 129L49.7072 107.924Z" fill="#BF1F2E"/>
<path d="M32.2371 97.3336L50.5691 108L31.1004 120.093L32.2371 97.3336Z" fill="#BF1F2E"/>
<path d="M22.1331 80.4087L33.9852 97.9349L11.1664 100.418L22.1331 80.4087Z" fill="#BF1F2E"/>
<path d="M18.537 61.4201L21.6843 82.3073L0 74.8179L18.537 61.4201Z" fill="#BF1F2E"/>
<path d="M25.0724 42.0739L18.667 62.2109L2.49996 46.0063L25.0724 42.0739Z" fill="#BF1F2E"/>
<path d="M37.5167 27.239L24.3899 43.8427L14.9977 23.0146L37.5167 27.239Z" fill="#BF1F2E"/>
<path d="M56.3784 20.0592L37.2666 29.273L37.9918 6.45805L56.3784 20.0592Z" fill="#BF1F2E"/>
<path d="M75.3442 19.8717L54.1154 20.5404L64.128 0L75.3442 19.8717Z" fill="#BF1F2E"/>
<path d="M93.5157 28.0384L74.1489 19.3671L92.2169 5.28731L93.5157 28.0384Z" fill="#BF1F2E"/>
<path d="M106.078 43.6657L92.0921 27.7709L114.412 22.4383L106.078 43.6657Z" fill="#BF1F2E"/>
<path d="M110.181 59.8544L105.789 41.1471L126 46.3581L110.181 59.8544Z" fill="#BF1F2E"/>
<path d="M112.719 60.4011C111.646 50.1523 107.229 40.5343 100.143 33.0158C93.0571 25.4972 83.6914 20.4913 73.476 18.7623C63.2606 17.0332 52.7568 18.6762 43.5685 23.4402C34.3802 28.2043 27.0122 35.8276 22.5897 45.1463C18.1672 54.4649 16.9331 64.9668 19.0758 75.0483C21.2186 85.1298 26.6205 94.237 34.4566 100.979C42.2928 107.722 52.1327 111.728 62.4738 112.388C72.8148 113.048 83.0889 110.324 91.7271 104.632L87.2828 97.9623C80.109 102.689 71.5768 104.951 62.9888 104.403C54.4009 103.855 46.2293 100.528 39.7216 94.9285C33.2139 89.3293 28.7279 81.7661 26.9484 73.3937C25.1689 65.0214 26.1938 56.3 29.8665 48.5611C33.5393 40.8223 39.6581 34.4914 47.2887 30.535C54.9193 26.5787 63.6423 25.2142 72.1258 26.6501C80.6094 28.086 88.3873 32.2433 94.2719 38.4872C100.156 44.7311 103.824 52.7185 104.716 61.2298L112.719 60.4011Z" fill="#2D4B73" fill-opacity="0.01"/>
</svg>
